<?xml version="1.0" encoding="iso-8859-1"?>
<!-- Generator: Adobe Illustrator 19.0.0, SVG Export Plug-In . SVG Version: 6.00 Build 0)  -->
<svg version="1.1" id="Capa_1" xmlns="http://www.w3.org/2000/svg" xmlns:xlink="http://www.w3.org/1999/xlink" x="0px" y="0px"
	 viewBox="0 0 412.124 412.124" style="enable-background:new 0 0 412.124 412.124;" xml:space="preserve">
<g>
	<circle style="fill:#FFCF70;" cx="206.06" cy="68.684" r="60.64"/>
	<path style="fill:#FFCF70;" d="M110.06,309.004l17.92-14.24c36.88-29.36,42.16-81.44,42.72-102.48v-8h70.08v8
		c0.56,21.04,5.84,73.12,42.72,102.48l18.56,14.24H110.06z"/>
</g>
<path style="fill:#CC9640;" d="M123.42,129.324h165.36v27.6H123.42V129.324z"/>
<path style="fill:#FFCF70;" d="M146.54,156.924h119.04v27.6H146.54L146.54,156.924z"/>
<path style="fill:#CC9640;" d="M76.06,348.684h260.08v55.2H76.06V348.684z"/>
<path style="fill:#FFCF70;" d="M102.46,309.004h207.2v39.68h-207.2L102.46,309.004z"/>
<path style="fill:#35231A;" d="M336.06,340.684h-18.4v-32c0,0,0-0.4,0-0.64c-0.117-0.995-0.387-1.967-0.8-2.88
	c-0.267-0.513-0.589-0.996-0.96-1.44l-0.72-0.88c-0.465-0.404-0.975-0.753-1.52-1.04l-1.12,0.16c-54.96-20-62.16-86.4-62.96-108.96
	h16c4.418,0,8-3.582,8-8v-20.08h15.2c4.418,0,8-3.582,8-8v-27.6c0-4.418-3.582-8-8-8h-38.72
	c29.096-24.301,32.983-67.587,8.683-96.683c-24.301-29.096-67.587-32.983-96.683-8.683s-32.983,67.587-8.683,96.683
	c2.629,3.148,5.535,6.054,8.683,8.683h-38.64c-4.418,0-8,3.582-8,8v27.6c0,4.418,3.582,8,8,8h15.12v19.6c0,4.418,3.582,8,8,8h16
	c-0.8,22.64-8,89.04-62.96,108.96l-0.96,0.56c-0.545,0.287-1.055,0.636-1.52,1.04l-0.72,0.88c-0.371,0.444-0.693,0.927-0.96,1.44
	c-0.413,0.913-0.683,1.885-0.8,2.88c0,0,0,0,0,0.64v32H76.06c-4.418,0-8,3.582-8,8v55.2c0,4.418,3.582,8,8,8h260
	c4.418,0,8-3.582,8-8v-55.2c0.133-4.416-3.34-8.104-7.756-8.236C336.223,340.685,336.142,340.684,336.06,340.684L336.06,340.684z
	 M153.42,68.684c0-29.072,23.568-52.64,52.64-52.64s52.64,23.568,52.64,52.64s-23.568,52.64-52.64,52.64
	C177.006,121.28,153.464,97.738,153.42,68.684z M131.42,148.684v-11.36H280.7v11.6H131.42L131.42,148.684z M154.54,176.284v-11.36
	h103.04v11.6H154.54L154.54,176.284z M178.54,192.284h54.48c0.56,21.2,6,76.88,45.68,108.56H133.1
	c39.76-31.52,45.12-86.88,45.68-108.32L178.54,192.284z M110.46,317.004h191.2v24h-191.2L110.46,317.004z M328.06,395.884h-244
	v-39.2h244V395.884z"/>
<g>
</g>
<g>
</g>
<g>
</g>
<g>
</g>
<g>
</g>
<g>
</g>
<g>
</g>
<g>
</g>
<g>
</g>
<g>
</g>
<g>
</g>
<g>
</g>
<g>
</g>
<g>
</g>
<g>
</g>
</svg>
